<svg xmlns="http://www.w3.org/2000/svg" viewBox="0 0 120 120" fill="none">
  <circle cx="60" cy="60" r="60" fill="#FFF5EB"/>
  <rect x="36" y="24" width="48" height="40" rx="10" fill="#E8A87C"/>
  <rect x="36" y="24" width="48" height="40" rx="10" stroke="#C88A5C" stroke-width="2"/>
  <circle cx="48" cy="42" r="5" fill="white"/>
  <circle cx="48" cy="42" r="2.5" fill="#2C3E2D"/>
  <circle cx="72" cy="42" r="5" fill="white"/>
  <circle cx="72" cy="42" r="2.5" fill="#2C3E2D"/>
  <rect x="48" y="53" width="24" height="3" rx="1.5" fill="#C88A5C"/>
  <rect x="46" y="14" width="8" height="14" rx="3" fill="#E8A87C" stroke="#C88A5C" stroke-width="1.5"/>
  <rect x="66" y="14" width="8" height="14" rx="3" fill="#E8A87C" stroke="#C88A5C" stroke-width="1.5"/>
  <line x1="50" y1="8" x2="50" y2="14" stroke="#C88A5C" stroke-width="1.5" stroke-linecap="round"/>
  <circle cx="50" cy="6" r="2.5" fill="#F8C89C" stroke="#C88A5C" stroke-width="1"/>
  <line x1="70" y1="8" x2="70" y2="14" stroke="#C88A5C" stroke-width="1.5" stroke-linecap="round"/>
  <circle cx="70" cy="6" r="2.5" fill="#F8C89C" stroke="#C88A5C" stroke-width="1"/>
  <rect x="28" y="64" width="16" height="28" rx="6" fill="#E8A87C" stroke="#C88A5C" stroke-width="1.5"/>
  <rect x="76" y="64" width="16" height="28" rx="6" fill="#E8A87C" stroke="#C88A5C" stroke-width="1.5"/>
  <rect x="36" y="64" width="48" height="32" rx="8" fill="#E8A87C" stroke="#C88A5C" stroke-width="1.5"/>
  <circle cx="42" cy="80" r="3" fill="#F8C89C" stroke="#C88A5C" stroke-width="1"/>
  <circle cx="78" cy="80" r="3" fill="#F8C89C" stroke="#C88A5C" stroke-width="1"/>
  <circle cx="60" cy="80" r="2" fill="#F8C89C" stroke="#C88A5C" stroke-width="1"/>
</svg>