<svg xmlns="http://www.w3.org/2000/svg" width="320" height="80" viewBox="0 0 320 80">
  <defs>
    <linearGradient id="sageGrad" x1="0%" y1="0%" x2="100%" y2="100%">
      <stop offset="0%" style="stop-color:#7A9E7E"/>
    </linearGradient>
    <linearGradient id="terraGrad" x1="0%" y1="0%" x2="100%" y2="100%">
      <stop offset="0%" style="stop-color:#E8A87C"/>
    </linearGradient>
  </defs>
  <!-- Heart-shaped plate icon -->
  <g transform="translate(8, 8)">
    <path d="M32 8 C32 8 24 0 16 0 C8 0 0 8 0 16 C0 24 8 32 16 40 L32 56 L48 40 C56 32 64 24 64 16 C64 8 56 0 48 0 C40 0 32 8 32 8Z" fill="none" stroke="#2C3E2D" stroke-width="2"/>
    <path d="M32 10 C32 10 26 4 20 4 C14 4 6 10 6 16 C6 22 12 28 16 34 L32 48" fill="url(#sageGrad)" opacity="0.7"/>
    <path d="M32 10 C32 10 38 4 44 4 C50 4 58 10 58 16 C58 22 52 28 48 34 L32 48" fill="url(#terraGrad)" opacity="0.7"/>
  </g>
  <!-- Wordmark -->
  <text x="76" y="38" font-family="Inter, system-ui, sans-serif" font-size="22" font-weight="600" fill="#2C3E2D" letter-spacing="-0.5">Couples Food</text>
  <text x="76" y="60" font-family="Inter, system-ui, sans-serif" font-size="18" font-weight="500" fill="#6B7B6C" letter-spacing="-0.3">System</text>
</svg>
